FFmpeg version SVN-r25716, Copyright (c) 2000-2010 the FFmpeg developers  built on Nov 10 2010 12:23:18 with gcc 4.1.2 20080704 (Red Hat 4.1.2-48)  configuration: --enable-libmp3lame --enable-shared --disable-mmx --arch=x86_64  libavutil     50.33. 0 / 50.33. 0  libavcore      0.12. 1 /  0.12. 1  libavcodec    52.94. 4 / 52.94. 4  libavformat   52.84. 0 / 52.84. 0  libavdevice   52. 2. 2 / 52. 2. 2  libavfilter    1.59. 0 /  1.59. 0  libswscale     0.12. 0 /  0.12. 0Seems stream 0 codec frame rate differs from container frame rate: 600.00 (600/1) -> 6.00 (6/1)Input #0, mov,mp4,m4a,3gp,3g2,mj2, from '/RAID10/data/converted_video_files/35164.mov':  Metadata:    major_brand     : qt      minor_version   : 537199360    compatible_brands: qt      comment         : Created by HamamatsuWed, 01 Jun 2011 11:27:05 Eastern Daylight Time[ CALIBRATION ]	;MEASUREMENT CALIBRATION calib_index = 1	;Current Calibration Index title = 40x10um	;Current Calibration Title units = Pixels	;Current Calibration Units factor = 0.160000	;Current Calibration Scale Factor scale_len = 10.000000	;Current Calibration Scale Length symbol = µm	;Current Calibration Symbol[ ROI ]	;MEASUREMENT REGION OF INTEREST roi.type = 5	;FULL_FRAME roi.x1 = 0	;Left   limit roi.x2 = 1279	;Right  limit roi.y1 = 0	;Top    limit roi.y2 = 1023	;Bottom limit roi.w = 1280	;Width roi.h = 1024	;Height roi.area = 1310720.000000	;Area roi.capture = FALSE	;Capture ROI only roi.name = C:\Users\Sluder Lab\Documents\SIMPLE.ROI	;Disk file name[ CAPTURE ]	;CAPTURE IMAGE FROM DISK OR CAMERA c_Focus24BitMode = TRUE	;Focus 24 Bit Mode c_EnableCustom = TRUE	;Auto Exposure Enable Custom c_Capture1OnOk = TRUE	;Capture an Image On Okay Exit c_RuntimeMenu = TRUE    comment-eng     : Created by HamamatsuWed, 01 Jun 2011 11:27:05 Eastern Daylight Time[ CALIBRATION ]	;MEASUREMENT CALIBRATION calib_index = 1	;Current Calibration Index title = 40x10um	;Current Calibration Title units = Pixels	;Current Calibration Units factor = 0.160000	;Current Calibration Scale Factor scale_len = 10.000000	;Current Calibration Scale Length symbol = µm	;Current Calibration Symbol[ ROI ]	;MEASUREMENT REGION OF INTEREST roi.type = 5	;FULL_FRAME roi.x1 = 0	;Left   limit roi.x2 = 1279	;Right  limit roi.y1 = 0	;Top    limit roi.y2 = 1023	;Bottom limit roi.w = 1280	;Width roi.h = 1024	;Height roi.area = 1310720.000000	;Area roi.capture = FALSE	;Capture ROI only roi.name = C:\Users\Sluder Lab\Documents\SIMPLE.ROI	;Disk file name[ CAPTURE ]	;CAPTURE IMAGE FROM DISK OR CAMERA c_Focus24BitMode = TRUE	;Focus 24 Bit Mode c_EnableCustom = TRUE	;Auto Exposure Enable Custom c_Capture1OnOk = TRUE	;Capture an Image On Okay Exit c_RuntimeMenu = TRUE  Duration: 00:00:40.00, start: 0.000000, bitrate: 198313 kb/s    Stream #0.0(eng): Video: tiff, rgb24, 1344x1024, 198312 kb/s, 6 fps, 6 tbr, 600 tbn, 600 tbc[buffer @ 0x1e3f350] w:1344 h:1024 pixfmt:rgb24[ffsink @ 0x2056000] auto-inserting filter 'auto-inserted scaler 0' between the filter 'src' and the filter 'out'[scale @ 0x20562f0] w:1344 h:1024 fmt:rgb24 -> w:1344 h:1024 fmt:yuv420p flags:0x4Output #0, flv, to '/RAID10/data/converted_video_files/35164.flv':  Metadata:    encoder         : Lavf52.84.0    Stream #0.0(eng): Video: flv, yuv420p, 1344x1024, q=2-31, 600 kb/s, 1k tbn, 24 tbcStream mapping:  Stream #0.0 -> #0.0Press [q] to stop encodingframe=    5 fps=  0 q=4.8 size=    1016kB time=0.71 bitrate=11760.9kbits/s    frame=    9 fps=  7 q=15.8 size=    1054kB time=1.38 bitrate=6279.1kbits/s    frame=   11 fps=  5 q=21.7 size=    1058kB time=1.71 bitrate=5073.3kbits/s    frame=   16 fps=  5 q=31.0 size=    1100kB time=2.54 bitrate=3543.9kbits/s    frame=   19 fps=  5 q=31.0 size=    1104kB time=3.04 bitrate=2971.9kbits/s    frame=   22 fps=  5 q=31.0 size=    1108kB time=3.54 bitrate=2563.0kbits/s    frame=   25 fps=  5 q=24.8 size=    1148kB time=4.04 bitrate=2326.4kbits/s    frame=   30 fps=  5 q=31.0 size=    1156kB time=4.88 bitrate=1942.0kbits/s    frame=   32 fps=  5 q=31.0 size=    1159kB time=5.21 bitrate=1822.8kbits/s    frame=   35 fps=  5 q=31.0 size=    1163kB time=5.71 bitrate=1669.4kbits/s    frame=   38 fps=  5 q=31.0 size=    1202kB time=6.21 bitrate=1586.7kbits/s    frame=   41 fps=  6 q=31.0 size=    1207kB time=6.71 bitrate=1473.7kbits/s    frame=   48 fps=  6 q=31.0 size=    1217kB time=7.88 bitrate=1266.4kbits/s    frame=   55 fps=  7 q=31.0 size=    1265kB time=9.04 bitrate=1146.0kbits/s    frame=   62 fps=  7 q=31.0 size=    1310kB time=10.21 bitrate=1051.5kbits/s    frame=   66 fps=  7 q=31.0 size=    1316kB time=10.88 bitrate= 991.6kbits/s    frame=   72 fps=  7 q=31.0 size=    1326kB time=11.88 bitrate= 914.7kbits/s    frame=   76 fps=  7 q=31.0 size=    1368kB time=12.54 bitrate= 893.4kbits/s    frame=   81 fps=  7 q=31.0 size=    1378kB time=13.38 bitrate= 843.8kbits/s    frame=   89 fps=  8 q=31.0 size=    1428kB time=14.71 bitrate= 795.2kbits/s    frame=   98 fps=  8 q=31.0 size=    1481kB time=16.21 bitrate= 748.7kbits/s    frame=  106 fps=  8 q=31.0 size=    1501kB time=17.54 bitrate= 700.8kbits/s    frame=  114 fps=  9 q=31.0 size=    1555kB time=18.88 bitrate= 674.9kbits/s    frame=  120 fps=  9 q=31.0 size=    1569kB time=19.88 bitrate= 646.6kbits/s    frame=  128 fps=  9 q=31.0 size=    1622kB time=21.21 bitrate= 626.4kbits/s    frame=  136 fps=  9 q=31.0 size=    1674kB time=22.54 bitrate= 608.3kbits/s    frame=  144 fps=  9 q=19.3 size=    1693kB time=23.88 bitrate= 580.8kbits/s    frame=  153 fps= 10 q=13.2 size=    1749kB time=25.38 bitrate= 564.6kbits/s    frame=  160 fps= 10 q=10.3 size=    1800kB time=26.54 bitrate= 555.5kbits/s    frame=  167 fps= 10 q=8.6 size=    1816kB time=27.71 bitrate= 536.9kbits/s    frame=  173 fps= 10 q=9.2 size=    1873kB time=28.71 bitrate= 534.3kbits/s    frame=  180 fps= 10 q=8.5 size=    1893kB time=29.88 bitrate= 519.1kbits/s    frame=  187 fps= 10 q=8.0 size=    1963kB time=31.04 bitrate= 518.0kbits/s    frame=  194 fps= 10 q=7.9 size=    2037kB time=32.21 bitrate= 518.2kbits/s    frame=  201 fps= 10 q=8.5 size=    2063kB time=33.38 bitrate= 506.4kbits/s    frame=  208 fps= 10 q=8.6 size=    2132kB time=34.54 bitrate= 505.5kbits/s    frame=  215 fps= 10 q=8.1 size=    2164kB time=35.71 bitrate= 496.5kbits/s    frame=  223 fps= 10 q=7.9 size=    2241kB time=37.04 bitrate= 495.6kbits/s    frame=  229 fps= 10 q=6.2 size=    2317kB time=38.04 bitrate= 498.9kbits/s    frame=  236 fps= 11 q=7.3 size=    2354kB time=39.21 bitrate= 491.8kbits/s    frame=  240 fps= 11 q=7.5 Lsize=    2376kB time=39.88 bitrate= 488.2kbits/s    video:2372kB audio:0kB global headers:0kB muxing overhead 0.166711%